<svg width="225" height="60" viewBox="0 0 225 60" fill="none" xmlns="http://www.w3.org/2000/svg">
<path d="M97.98 29.004C99.636 29.364 100.908 30.084 101.796 31.164C102.708 32.22 103.164 33.588 103.164 35.268C103.164 37.428 102.36 39.096 100.752 40.272C99.168 41.424 96.816 42 93.696 42H82.104V16.8H92.976C95.784 16.8 97.956 17.364 99.492 18.492C101.052 19.62 101.832 21.216 101.832 23.28C101.832 24.672 101.484 25.86 100.788 26.844C100.116 27.804 99.18 28.524 97.98 29.004ZM84.768 18.996V28.14H92.796C94.836 28.14 96.408 27.756 97.512 26.988C98.616 26.196 99.168 25.056 99.168 23.568C99.168 22.08 98.616 20.952 97.512 20.184C96.408 19.392 94.836 18.996 92.796 18.996H84.768ZM93.66 39.804C95.916 39.804 97.62 39.42 98.772 38.652C99.924 37.884 100.5 36.684 100.5 35.052C100.5 31.908 98.22 30.336 93.66 30.336H84.768V39.804H93.66ZM115.329 22.92C117.801 22.92 119.697 23.544 121.017 24.792C122.337 26.016 122.997 27.84 122.997 30.264V42H120.549V39.048C119.973 40.032 119.121 40.8 117.993 41.352C116.889 41.904 115.569 42.18 114.033 42.18C111.921 42.18 110.241 41.676 108.993 40.668C107.745 39.66 107.121 38.328 107.121 36.672C107.121 35.064 107.697 33.768 108.849 32.784C110.025 31.8 111.885 31.308 114.429 31.308H120.441V30.156C120.441 28.524 119.985 27.288 119.073 26.448C118.161 25.584 116.829 25.152 115.077 25.152C113.877 25.152 112.725 25.356 111.621 25.764C110.517 26.148 109.569 26.688 108.777 27.384L107.625 25.476C108.585 24.66 109.737 24.036 111.081 23.604C112.425 23.148 113.841 22.92 115.329 22.92ZM114.429 40.164C115.869 40.164 117.105 39.84 118.137 39.192C119.169 38.52 119.937 37.56 120.441 36.312V33.216H114.501C111.261 33.216 109.641 34.344 109.641 36.6C109.641 37.704 110.061 38.58 110.901 39.228C111.741 39.852 112.917 40.164 114.429 40.164ZM137.857 42.18C135.985 42.18 134.305 41.772 132.817 40.956C131.353 40.14 130.201 39 129.361 37.536C128.521 36.048 128.101 34.38 128.101 32.532C128.101 30.684 128.521 29.028 129.361 27.564C130.201 26.1 131.353 24.96 132.817 24.144C134.305 23.328 135.985 22.92 137.857 22.92C139.489 22.92 140.941 23.244 142.213 23.892C143.509 24.516 144.529 25.44 145.273 26.664L143.365 27.96C142.741 27.024 141.949 26.328 140.989 25.872C140.029 25.392 138.985 25.152 137.857 25.152C136.489 25.152 135.253 25.464 134.149 26.088C133.069 26.688 132.217 27.552 131.593 28.68C130.993 29.808 130.693 31.092 130.693 32.532C130.693 33.996 130.993 35.292 131.593 36.42C132.217 37.524 133.069 38.388 134.149 39.012C135.253 39.612 136.489 39.912 137.857 39.912C138.985 39.912 140.029 39.684 140.989 39.228C141.949 38.772 142.741 38.076 143.365 37.14L145.273 38.436C144.529 39.66 143.509 40.596 142.213 41.244C140.917 41.868 139.465 42.18 137.857 42.18ZM159.661 22.92C162.037 22.92 163.921 23.616 165.313 25.008C166.729 26.376 167.437 28.38 167.437 31.02V42H164.881V31.272C164.881 29.304 164.389 27.804 163.405 26.772C162.421 25.74 161.017 25.224 159.193 25.224C157.153 25.224 155.533 25.836 154.333 27.06C153.157 28.26 152.569 29.928 152.569 32.064V42H150.013V15.288H152.569V26.376C153.265 25.272 154.225 24.42 155.449 23.82C156.673 23.22 158.077 22.92 159.661 22.92ZM181.001 22.92C183.473 22.92 185.369 23.544 186.689 24.792C188.009 26.016 188.669 27.84 188.669 30.264V42H186.221V39.048C185.645 40.032 184.793 40.8 183.665 41.352C182.561 41.904 181.241 42.18 179.705 42.18C177.593 42.18 175.913 41.676 174.665 40.668C173.417 39.66 172.793 38.328 172.793 36.672C172.793 35.064 173.369 33.768 174.521 32.784C175.697 31.8 177.557 31.308 180.101 31.308H186.113V30.156C186.113 28.524 185.657 27.288 184.745 26.448C183.833 25.584 182.501 25.152 180.749 25.152C179.549 25.152 178.397 25.356 177.293 25.764C176.189 26.148 175.241 26.688 174.449 27.384L173.297 25.476C174.257 24.66 175.409 24.036 176.753 23.604C178.097 23.148 179.513 22.92 181.001 22.92ZM180.101 40.164C181.541 40.164 182.777 39.84 183.809 39.192C184.841 38.52 185.609 37.56 186.113 36.312V33.216H180.173C176.933 33.216 175.312 34.344 175.312 36.6C175.312 37.704 175.733 38.58 176.573 39.228C177.413 39.852 178.589 40.164 180.101 40.164ZM203.421 42.18C201.597 42.18 199.953 41.772 198.489 40.956C197.025 40.116 195.873 38.964 195.033 37.5C194.193 36.036 193.773 34.38 193.773 32.532C193.773 30.684 194.193 29.028 195.033 27.564C195.873 26.1 197.025 24.96 198.489 24.144C199.953 23.328 201.597 22.92 203.421 22.92C205.245 22.92 206.889 23.328 208.353 24.144C209.817 24.96 210.957 26.1 211.773 27.564C212.613 29.028 213.033 30.684 213.033 32.532C213.033 34.38 212.613 36.036 211.773 37.5C210.957 38.964 209.817 40.116 208.353 40.956C206.889 41.772 205.245 42.18 203.421 42.18ZM203.421 39.912C204.765 39.912 205.965 39.612 207.021 39.012C208.101 38.388 208.941 37.512 209.541 36.384C210.141 35.256 210.441 33.972 210.441 32.532C210.441 31.092 210.141 29.808 209.541 28.68C208.941 27.552 208.101 26.688 207.021 26.088C205.965 25.464 204.765 25.152 203.421 25.152C202.077 25.152 200.865 25.464 199.785 26.088C198.729 26.688 197.889 27.552 197.265 28.68C196.665 29.808 196.365 31.092 196.365 32.532C196.365 33.972 196.665 35.256 197.265 36.384C197.889 37.512 198.729 38.388 199.785 39.012C200.865 39.612 202.077 39.912 203.421 39.912ZM217.856 16.8H220.88L220.34 34.44H218.36L217.856 16.8ZM219.368 42.18C218.84 42.18 218.384 42 218 41.64C217.64 41.256 217.46 40.812 217.46 40.308C217.46 39.78 217.64 39.348 218 39.012C218.36 38.652 218.816 38.472 219.368 38.472C219.896 38.472 220.34 38.652 220.7 39.012C221.06 39.348 221.24 39.78 221.24 40.308C221.24 40.812 221.06 41.256 220.7 41.64C220.34 42 219.896 42.18 219.368 42.18Z" fill="#F1FAEE"/>
<path d="M40 30C31.7175 30 25 36.7175 25 45C25 53.2825 31.7175 60 40 60C48.2825 60 55 53.2825 55 45C55 36.7175 48.2825 30 40 30ZM41.25 51.185V52.5H40V51.2525C38.705 51.23 37.3675 50.9225 36.25 50.345L36.82 48.29C38.015 48.755 39.605 49.2475 40.85 48.965C42.285 48.64 42.58 47.1625 40.9925 46.4525C39.83 45.91 36.27 45.4475 36.27 42.3975C36.27 40.695 37.57 39.1675 40 38.835V37.5H41.25V38.7725C42.155 38.7975 43.17 38.955 44.3025 39.2975L43.85 41.3575C42.89 41.02 41.83 40.715 40.795 40.7775C38.935 40.885 38.77 42.4975 40.07 43.1725C42.21 44.1775 45 44.9225 45 47.605C45.0025 49.75 43.32 50.8925 41.25 51.185ZM45.31 25.7375C48.14 25.18 50.715 24.1725 52.5 22.745V24.375C52.5 25.6225 51.535 26.7625 49.9825 27.695C48.53 26.8525 46.9625 26.195 45.31 25.7375V25.7375ZM40 11.25C46.6825 11.25 52.5 8.7325 52.5 5.625C52.5 2.5175 46.6825 0 40 0C33.32 0 27.5 2.5175 27.5 5.625C27.5 8.7325 33.32 11.25 40 11.25ZM40.2325 6.2275C39.485 6.0025 37.1975 5.8125 37.1975 4.54C37.1975 3.83 38.0325 3.1975 39.5925 3.0575V2.5H40.395V3.0275C40.98 3.04 41.63 3.1025 42.355 3.2525L42.065 4.1075C41.5125 3.98 40.8975 3.86 40.295 3.86L40.115 3.8625C38.91 3.9125 38.8125 4.58 39.645 4.86C41.0125 5.2825 42.8125 5.59 42.8125 6.71C42.8125 7.6025 41.7275 8.08 40.395 8.2V8.75H39.5925V8.23C38.7725 8.2225 37.9025 8.09 37.1875 7.85L37.555 6.9925C38.165 7.15 38.935 7.3075 39.625 7.3075L40.145 7.2725C41.0675 7.14 41.2525 6.5225 40.2325 6.2275ZM12.5 38.75C16.1125 38.75 19.4375 37.9975 21.7625 36.83C22.54 35.105 23.5475 33.5075 24.7575 32.0825C23.63 29.475 18.41 27.5 12.5 27.5C5.82 27.5 0 30.0175 0 33.125C0 36.2325 5.82 38.75 12.5 38.75V38.75ZM12.7325 33.7275C11.985 33.5025 9.6975 33.3125 9.6975 32.04C9.6975 31.33 10.535 30.6975 12.0925 30.5575V30H12.895V30.5275C13.48 30.54 14.13 30.6025 14.855 30.7525L14.5625 31.6075C14.0125 31.48 13.3975 31.36 12.795 31.36L12.615 31.3625C11.41 31.4125 11.315 32.08 12.145 32.36C13.5125 32.7825 15.3125 33.09 15.3125 34.21C15.3125 35.1025 14.2275 35.58 12.895 35.7V36.25H12.0925V35.73C11.27 35.7225 10.4025 35.59 9.6875 35.35L10.055 34.4925C10.665 34.65 11.435 34.8075 12.125 34.8075L12.645 34.7725C13.565 34.64 13.7525 34.0225 12.7325 33.7275V33.7275ZM22.74 55.055C20.4425 56.53 16.64 57.5 12.5 57.5C5.82 57.5 0 54.9825 0 51.875V50.245C2.865 52.54 7.7725 53.75 12.5 53.75C15.59 53.75 18.7475 53.2225 21.3725 52.2225C21.755 53.2075 22.2125 54.155 22.74 55.055ZM0 45.625V43.9975C2.865 46.29 7.7725 47.5 12.5 47.5C15.0975 47.5 17.735 47.1225 20.07 46.4125C20.1525 47.585 20.3375 48.7275 20.615 49.8375C18.395 50.705 15.555 51.25 12.5 51.25C5.82 51.25 0 48.7325 0 45.625V45.625ZM0 39.375V37.745C2.865 40.04 7.7725 41.25 12.5 41.25C15.3175 41.25 18.1875 40.81 20.665 39.9775C20.345 41.21 20.14 42.4825 20.0625 43.7925C17.9275 44.5375 15.305 45 12.5 45C5.82 45 0 42.4825 0 39.375ZM27.5 11.875V10.245C30.365 12.54 35.2725 13.75 40 13.75C44.73 13.75 49.635 12.54 52.5 10.245V11.875C52.5 14.9825 46.6825 17.5 40 17.5C33.32 17.5 27.5 14.9825 27.5 11.875ZM27.5 24.375V22.745C29.2825 24.1725 31.86 25.18 34.69 25.7375C33.0375 26.195 31.4725 26.8525 30.02 27.695C28.465 26.7625 27.5 25.6225 27.5 24.375V24.375ZM27.5 18.125V16.4975C30.365 18.79 35.2725 20 40 20C44.73 20 49.635 18.79 52.5 16.4975V18.125C52.5 21.2325 46.6825 23.75 40 23.75C33.32 23.75 27.5 21.2325 27.5 18.125Z" fill="#F1FAEE"/>
</svg>
